<svg version="1.1" viewBox="0.0 0.0 960.0 720.0" fill="none" stroke="none" stroke-linecap="square" stroke-miterlimit="10" xmlns:xlink="http://www.w3.org/1999/xlink" xmlns="http://www.w3.org/2000/svg"><clipPath id="p.0"><path d="m0 0l960.0 0l0 720.0l-960.0 0l0 -720.0z" clip-rule="nonzero"/></clipPath><g clip-path="url(#p.0)"><path fill="#000000" d="m0 0l960.0 0l0 720.0l-960.0 0z" fill-rule="evenodd"/><path fill="#780d00" d="m197.87401 360.0l0 0c0 -155.81387 126.31212 -282.12598 282.12598 -282.12598l0 0c74.82446 0 146.58429 29.7239 199.49323 82.63279c52.908875 52.90889 82.63275 124.66873 82.63275 199.4932l0 0c0 155.8139 -126.31207 282.12598 -282.12598 282.12598l0 0c-155.81387 0 -282.12598 -126.31207 -282.12598 -282.12598z" fill-rule="evenodd"/><path fill="#dc3e00" d="m224.11023 359.9987l0 0c0 -141.32402 114.565765 -255.88977 255.88977 -255.88977l0 0c67.86621 0 132.95276 26.95974 180.9414 74.94837c47.988647 47.988647 74.948364 113.07521 74.948364 180.94139l0 0c0 141.324 -114.565735 255.88974 -255.88977 255.88974l0 0c-141.324 0 -255.88977 -114.565735 -255.88977 -255.88974z" fill-rule="evenodd"/><path fill="#e87206" d="m248.26772 360.00012l0 0c0 -127.98222 103.75008 -231.7323 231.73228 -231.7323l0 0c61.45923 0 120.401245 24.414581 163.8595 67.87282c43.45819 43.458237 67.8728 102.40025 67.8728 163.85948l0 0c0 127.98221 -103.75012 231.7323 -231.7323 231.7323l0 0c-127.98221 0 -231.73228 -103.75009 -231.73228 -231.7323z" fill-rule="evenodd"/><path fill="#f5a940" d="m276.37796 360.0l0 0c0 -112.45735 91.1647 -203.62204 203.62204 -203.62204l0 0c54.003906 0 105.79596 21.452972 143.98254 59.63951c38.186523 38.18654 59.639526 89.97859 59.639526 143.98253l0 0c0 112.45734 -91.164734 203.62207 -203.62207 203.62207l0 0c-112.45734 0 -203.62204 -91.164734 -203.62204 -203.62207z" fill-rule="evenodd"/><path fill="#000000" d="m296.22046 360.0l0 0c0 -101.49863 82.280914 -183.77953 183.77954 -183.77953l0 0c48.741333 0 95.48639 19.362427 129.95172 53.827774c34.465393 34.465363 53.82782 81.21039 53.82782 129.95175l0 0c0 101.49863 -82.28088 183.77954 -183.77954 183.77954l0 0c-101.49863 0 -183.77954 -82.280914 -183.77954 -183.77954z" fill-rule="evenodd"/><path fill="#2d6aa2" d="m300.72177 550.831l0 0c0 -10.497742 23.27417 -19.007874 51.984253 -19.007874l0 0c28.710114 0 51.984253 8.510132 51.984253 19.007874l0 0c0 10.497742 -23.27414 19.007874 -51.984253 19.007874l0 0c-28.710083 0 -51.984253 -8.510132 -51.984253 -19.007874z" fill-rule="evenodd"/><path fill="#2d6aa2" d="m385.13202 213.87927l19.559052 0l0 336.5039l-19.559052 0z" fill-rule="evenodd"/><path fill="#2d6aa2" d="m385.12854 213.89415l177.82678 -83.93701l7.8425293 25.417328l-177.82678 83.93701z" fill-rule="evenodd"/><path fill="#2d6aa2" d="m387.08667 308.8097l177.82678 -83.937l8.0 25.921265l-177.82678 83.937z" fill-rule="evenodd"/><path fill="#2d6aa2" d="m477.32834 468.4666l0 0c0 -10.497772 23.27414 -19.007874 51.984222 -19.007874l0 0c28.710144 0 51.984253 8.510101 51.984253 19.007874l0 0c0 10.497742 -23.274109 19.007874 -51.984253 19.007874l0 0c-28.710083 0 -51.984222 -8.510132 -51.984222 -19.007874z" fill-rule="evenodd"/><path fill="#2d6aa2" d="m561.73834 129.95801l19.559021 0l0 336.50394l-19.559021 0z" fill-rule="evenodd"/><path fill="#ffffff" d="m316.72177 534.831l0 0c0 -10.497742 23.27417 -19.007874 51.984253 -19.007874l0 0c28.710114 0 51.984253 8.510132 51.984253 19.007874l0 0c0 10.497742 -23.27414 19.007874 -51.984253 19.007874l0 0c-28.710083 0 -51.984253 -8.510132 -51.984253 -19.007874z" fill-rule="evenodd"/><path fill="#ffffff" d="m401.13202 197.87927l19.559052 0l0 336.5039l-19.559052 0z" fill-rule="evenodd"/><path fill="#ffffff" d="m401.12854 197.89415l177.82678 -83.937004l7.8425293 25.41732l-177.82678 83.93701z" fill-rule="evenodd"/><path fill="#ffffff" d="m403.08667 292.8097l177.82678 -83.937l8.0 25.921265l-177.82678 83.937z" fill-rule="evenodd"/><path fill="#ffffff" d="m493.32834 452.4666l0 0c0 -10.497772 23.27414 -19.007874 51.984222 -19.007874l0 0c28.710144 0 51.984253 8.510101 51.984253 19.007874l0 0c0 10.497742 -23.274109 19.007874 -51.984253 19.007874l0 0c-28.710083 0 -51.984222 -8.510132 -51.984222 -19.007874z" fill-rule="evenodd"/><path fill="#ffffff" d="m577.73834 113.95801l19.559021 0l0 336.50394l-19.559021 0z" fill-rule="evenodd"/></g></svg>